<svg id="Layer_1" data-name="Layer 1" xmlns="http://www.w3.org/2000/svg" xmlns:xlink="http://www.w3.org/1999/xlink" viewBox="0 0 32 32"><defs><style>.cls-1{fill:none;}.cls-2{clip-path:url(#clip-path);}.cls-3{fill:#101319;}.cls-4{fill:#fff;}</style><clipPath id="clip-path"><rect class="cls-1" width="32" height="32" rx="16"/></clipPath></defs><g class="cls-2"><rect class="cls-3" width="32" height="32"/><path class="cls-4" d="M10.62,23.87a2,2,0,0,1-1.46-.47,1.66,1.66,0,0,1-.46-1.23c0-.13,0-.27,0-.42a2.41,2.41,0,0,1,.08-.42l1.6-8.07H8.6L9,11.44h.92a1.23,1.23,0,0,0,.93-.27,1.86,1.86,0,0,0,.36-.91L11.63,8h2l-.68,3.43h2.57l-.36,1.82H12.54l-1.75,8.79h2.45l-.36,1.82Z"/><path class="cls-4" d="M16.9,25.77a4.1,4.1,0,0,1-1,2.13,3.15,3.15,0,0,1-2.32.77H11.93l.36-1.82h2.25l2.72-13.59h-2l.36-1.82h2L18.1,9a4,4,0,0,1,1-2.13,3.07,3.07,0,0,1,2.29-.77H23.3l-.36,1.82H20.45l-.7,3.51h2.43l-.36,1.82H19.39Z"/><rect class="cls-4" y="11.43" width="32" height="1.84"/></g></svg>